<svg xmlns="http://www.w3.org/2000/svg" viewBox="0 0 220 220" role="img" aria-labelledby="title desc">
  <title id="title">TRIWEAVE logo</title>
  <desc id="desc">Stylized TRIWEAVE emblem with white circular arcs and cyan angular monogram.</desc>
  <rect width="220" height="220" fill="#000"/>
  <path d="M43 43 A95 95 0 0 1 177 43 L157 57 A70 70 0 0 0 63 57 Z" fill="#f2f2f2"/>
  <path d="M43 177 A95 95 0 0 1 23 110 A95 95 0 0 1 31 72 L51 89 A70 70 0 0 0 47 110 A70 70 0 0 0 63 157 Z" fill="#f2f2f2"/>
  <path d="M177 177 A95 95 0 0 0 197 110 A95 95 0 0 0 189 72 L169 89 A70 70 0 0 1 173 110 A70 70 0 0 1 157 157 Z" fill="#f2f2f2"/>
  <path d="M36 74 L78 74 L55 127 L36 95 Z" fill="#f2f2f2"/>
  <path d="M184 74 L142 74 L165 127 L184 95 Z" fill="#f2f2f2"/>
  <path d="M75 70 L145 70 L127 103 L95 103 L110 129 L87 170 L68 137 L92 95 L66 95 Z" fill="#11b9ff"/>
  <path d="M124 104 L143 136 L124 170 L95 170 L113 137 L100 116 Z" fill="#11b9ff"/>
</svg>
